<svg xmlns:xlink="http://www.w3.org/1999/xlink" xmlns="http://www.w3.org/2000/svg" class="css-ze2te4 css-qd6ojx" viewBox="0 0 92.10526315789473 92.91464946457089" width="110"  height="110" ><g transform="translate(-5.566620092710131, -5.1619249702539385) scale(1.0323849940507877)" class="css-1yquyso" fill="#004AAC"><path xmlns="http://www.w3.org/2000/svg" d="M73.591,21.324v-3.697c0-0.161-0.034-0.321-0.086-0.479l21.103-6.051L50.02,5L5.392,11.338l13.302,3.75v5.134  c-0.626,0.132-1.097,0.668-1.141,1.323h-0.01c0,0.012,0.005,0.024,0.006,0.036c-0.001,0.02-0.006,0.039-0.006,0.059h0.009v7.307h0.6  v-6.686c0.052,0.022,0.107,0.041,0.164,0.059v7.226h0.6v-7.124c0.026,0.001,0.051,0.005,0.077,0.005c0.03,0,0.057-0.004,0.087-0.005  v7.125h0.6v-7.229c0.057-0.019,0.112-0.038,0.164-0.061v6.69h0.6V21.64h0c0,0,0,0,0-0.001v-0.095c0,0,0,0,0,0h-0.01  c-0.043-0.654-0.515-1.191-1.141-1.323v-4.965l7.161,2.019c-0.028,0.116-0.047,0.233-0.047,0.351v9.636  c-4.846,4.993-7.851,11.781-7.892,19.263l-7.786,22.076h10.433V74.1h0.9v0.002h-0.9c0,5.826,4.739,10.565,10.565,10.565h5.85V95  h15.541h13.297h15.54V66.144c5.104-5.241,7.91-12.138,7.91-19.463C89.866,35.443,83.186,25.742,73.591,21.324z M24.103,50.254  c0-1.9,1.541-3.44,3.441-3.44c1.9,0,3.441,1.541,3.441,3.44c0,1.901-1.541,3.441-3.441,3.441  C25.644,53.695,24.103,52.155,24.103,50.254z M80.42,65.138l-0.263,0.264V93.2H54.919V82.867h-7.65  c-4.833,0-8.764-3.932-8.764-8.765h-0.9V74.1h0.9v-7.299h-9.689l7.042-19.967v-0.154c0-14.394,11.71-26.105,26.104-26.105  c14.394,0,26.104,11.711,26.104,26.105C88.066,53.651,85.351,60.206,80.42,65.138z M47.003,50.254c0,1.901-1.541,3.441-3.441,3.441  c-1.9,0-3.441-1.541-3.441-3.441c0-1.9,1.541-3.44,3.441-3.44C45.462,46.814,47.003,48.354,47.003,50.254z M79.633,38.017  c0.741,0.973,1.185,2.185,1.185,3.504c0,1.53-0.599,2.922-1.577,3.957c-0.166,2.185-1.551,4.031-3.483,4.862v0.021  c-2.357,1.373-3.767,3.716-4.193,6.528h-2.182l-1.216-0.003H66.09v-6.2c0-2.276-1.427-4.435-3.226-5.203  c-0.858-0.334-1.753-0.892-2.404-1.621c-0.929,0.631-2.045,1.003-3.243,1.003c-1.203,0-2.318-0.366-3.244-0.993  c-0.917,0.603-2.026,0.959-3.214,0.959c-3.26,0-5.898-2.644-5.9-5.904c0-2.433,1.473-4.524,3.579-5.423  c0.572-2.599,2.873-4.541,5.644-4.541c0.147,0,0.28,0.013,0.417,0.019c1.045-1.526,2.798-2.524,4.786-2.524  c0.984,0,1.908,0.245,2.719,0.682c0.915-0.609,2.01-0.962,3.188-0.962c1.513,0,2.893,0.589,3.926,1.548  c0.434-0.103,0.882-0.166,1.35-0.166c2.338,0,4.359,1.408,5.262,3.424c2.375,0.719,4.103,2.922,4.103,5.528  C79.833,37.033,79.762,37.537,79.633,38.017z" fill="#004AAC"></path></g></svg>